<?xml version="1.0" ?><svg viewBox="0 0 32 32" xmlns="http://www.w3.org/2000/svg"><title/><g data-name="Layer 2" id="Layer_2" fill="rgba(200,200,200,0.8)"><path d="M23,23h0A1,1,0,0,1,23,21.72a8.93,8.93,0,0,0,2-5.41A9.11,9.11,0,0,0,16.23,7,9,9,0,0,0,9,21.71,1,1,0,0,1,9,23H9A1,1,0,0,1,7.47,23a11,11,0,1,1,17.05,0A1,1,0,0,1,23,23Z"/><path d="M25.87,25.87h0a1,1,0,0,1-.06-1.34,12.94,12.94,0,0,0,3.13-9.73A13,13,0,0,0,3,16a12.91,12.91,0,0,0,3.19,8.53,1,1,0,0,1-.06,1.34h0a1,1,0,0,1-1.48-.07A14.9,14.9,0,0,1,1,15.57,15,15,0,0,1,31,16a14.89,14.89,0,0,1-3.65,9.8A1,1,0,0,1,25.87,25.87Z"/><path d="M16,22a6,6,0,1,1,6-6A6,6,0,0,1,16,22Zm0-10a4,4,0,1,0,4,4A4,4,0,0,0,16,12Z"/><path d="M16,30h0a1,1,0,0,1-1-1V21h2v8A1,1,0,0,1,16,30Z"/></g></svg>
